<svg xmlns="http://www.w3.org/2000/svg" width="1019" height="306" viewBox="0 0 1019 306" fill="none">
  <path fill-rule="evenodd" clip-rule="evenodd" d="M970 15L957 9L949 10L946 8L944 10H929L927 8L925 10L923 8H910L909 10L902 12L896 10L901 7H892L891 10L886 8H865L862 10L849 9L843 12L838 11L827 15L824 14L823 17H820V22L818 23V34L820 40L818 47H821L822 49L821 53L818 55L819 58L817 59L820 67L817 70L819 73L818 92L821 93L818 98L821 103V113L819 116L821 123H819V130L823 129L821 135L819 136L823 142H821V144L824 147L831 146L832 144L839 142L842 146L846 143L850 144L859 140L860 142L874 140L879 142L882 139L883 141H892L894 137H897L899 140L907 139V141H913L920 139L923 135L926 138L929 136L935 139L936 137H947L949 135L956 134L958 137L964 134H969L971 127H973L972 112L974 107L972 106L971 99H973L971 94L973 81L972 63L970 62L971 40L968 43L971 35L969 23L971 22L969 19L970 15ZM373 15L371 17L365 13L362 16L357 14L351 17L349 15L347 17L340 16L338 18L316 19L312 21H302L299 23H289L281 26H257L252 28L250 40L252 47L249 55L251 59L249 61L251 71L249 72V77L252 76L251 80L248 81V107L251 112L248 120L250 119L251 123L248 125L249 129L247 143L250 146L247 150L250 149V151L247 155L249 167L247 171H297L300 169H303L304 171L313 168V170L321 167L323 169L325 166H333L336 164H341V166L344 167L350 164L355 166L362 165V168L368 166V155L370 153L367 149L370 144L368 138L370 133L368 130L371 127L370 122H372V111L368 109L372 103L370 100L371 95H373L372 79L374 77L373 73L370 75L373 70L372 67L374 66L372 63L374 58L371 54L372 50L374 49V45L372 44L374 32L371 34L370 31L373 29V15ZM363 23L361 25V31L365 33L361 35L363 45L361 51L363 54L362 59L360 60L361 73L364 74L363 79L359 83L361 92L359 95L360 105L357 111L359 113L357 120L359 122L358 125H356L359 139L358 143H356V158L325 159L322 162L318 160L313 163H299L291 166L286 164L277 168H260L258 158L260 157V153L258 151L260 149L258 144L260 143L258 136L260 135V130L257 125L260 123V118L258 116L259 111H261V107H258L257 104L258 101L261 100V96H258L261 92L258 85L260 84V75L258 72L261 70L259 63L261 59V42L258 45L260 33L262 32L263 34L275 31V33L281 29L291 27L296 28L300 26L301 28L306 27L307 25L315 24L325 26L330 24L340 25L342 23H348L349 25L356 21L363 23ZM952 25L950 35L953 37L951 38V54L949 56L951 64L949 65V71L951 74V98L949 101L950 105L953 103V106L951 108L952 112L950 113L952 118L950 120L936 123L932 121L921 124L913 123L910 125H903L901 127L889 124L885 127L882 125L876 127L872 125L870 127L863 126L861 128L855 127L853 129L841 124L844 113L842 108L843 104L847 103L848 105L851 103L853 99V94L851 92L854 90L863 88L869 92L868 96L871 97L872 105L879 107L878 104L880 103L877 99L875 90L869 88L866 84L863 85L859 82L851 83L841 92L840 87L842 84L840 82V74L842 72V66L840 65L842 53L839 50L841 47V43L839 42L840 33L837 32L839 27L842 25L843 27L856 23L862 24V26L864 23L870 21L874 23H885L889 20L891 22H905L909 19L919 23L936 21L949 22V24L952 25ZM1016 179L998 176L995 178L990 177L980 180L970 179L947 183L943 181L936 186L938 190V194H936V217L938 221L936 223L937 228L935 229H937L935 238L937 240L935 247L936 252L934 253L938 257L936 259L937 262H935V274L937 275V278L935 279L936 282L934 284L937 289L935 291V298L938 300L936 301L937 304L941 306H986L990 304L996 306L999 304H1009L1014 300L1013 297L1017 295L1015 286L1018 284L1016 276L1018 268H1014V266L1018 263L1017 253L1019 251V246L1017 244L1018 238L1016 234L1019 229L1018 225L1016 224L1017 209H1019L1017 202L1018 189L1014 188L1015 183L1017 182L1016 179ZM98 165H95L92 162L86 164L61 163L56 165L51 163L47 165L35 164L33 166L19 165L17 167L11 165L4 169V176L6 177L4 180L2 179L4 181L3 185L5 186L4 193L2 194L4 202L2 205L4 210L1 215V222L3 224L1 235L3 243L0 245L2 253L0 260L3 261V264L0 265V269L2 271L74 269L75 271H81L82 267L85 268V271L94 268L95 265H98L95 262L97 257L96 253H98V240L96 238L98 235L96 228L98 227L96 222L98 216V202L96 199L98 194L96 186L98 187L96 179L98 180L99 176L97 169L98 165ZM521 0L498 6L495 9V7L487 13L484 18H482L478 27L473 29L467 41V51L464 54L466 56L464 58L466 60L465 66L463 65L464 75L466 77L464 78L466 83H469L467 86L472 88L470 91L471 95L475 96L478 103L481 102L484 110L489 111L491 109L494 115L496 116L499 114L500 118L508 119L509 117L512 118V120L516 118L520 121L534 118L537 115L544 114L545 110L548 108L549 110L550 106L556 103V100L562 96L561 92L565 88L564 84L567 81L568 84V77L571 69H568L569 64L572 63V61L569 60L571 51L569 46L566 45L568 42L566 36L567 33H563V26L560 25V23L550 14L549 10L543 11L541 8L543 7L540 8L535 3L530 1L527 3L521 0ZM157 18L154 20L142 18L139 20L132 19L130 21L119 22L117 20L109 23L100 22L93 25L88 24L86 26L83 25L74 28L70 26L69 29L67 28V35L65 36V39L67 40L66 46L65 44L63 46L66 48L67 53L63 58L64 64L67 67L63 70L64 86L62 88L63 96L65 97L64 109L69 111L75 109L78 110L84 107L88 109L89 107L93 106L97 107L105 102L110 105H115L117 102L120 103V105L125 104L128 101L134 103L142 100L143 102L147 100L151 102H158L160 100L159 95L161 94L159 92L160 87L162 86L158 84L161 80L160 74L162 67L159 64L161 52L159 50L162 42L158 37L160 36L161 28L158 30L160 24L157 18ZM850 181L846 179L844 175L841 177L838 175L834 177L833 175H825L823 177H783L779 179L775 177H765L757 183L758 185L756 187L759 190V196H757V200L759 201V211L757 212L759 221L757 223V236L759 242L758 253H756L760 256L758 258L759 260L794 261L801 259L804 261L811 257L815 260H820L821 258L829 259L839 255V257L845 253L847 255L850 249L849 245H851V241L848 238L849 234L851 233V223L849 220V215L851 213L850 208L847 206L850 203V198L847 194L850 192L848 185L850 181ZM765 31H761L759 28L756 29L757 27L748 29L736 28L718 32L717 34L706 36L700 40L699 42L701 47L699 49V54L701 55V61L699 60L698 64L699 73L701 75L699 79L701 78L702 82L699 84L701 85L699 94L700 97H704L701 102L699 100L701 105V113L703 115L701 117V129L705 132L703 138L706 137L710 140L715 138H725L726 140L731 136H735L737 138L739 135H750L753 131L761 130L762 132H771V129L773 128L772 123L774 120V115L771 114V108H766L770 101L771 95L769 91L771 87L768 77L770 72L769 66L767 65L768 52L765 49V43L767 42L765 31ZM516 6L521 10L540 13V15L547 19L551 25L552 20L554 22V27L557 28L558 33H555L559 35L560 47L563 50L561 54V72L557 85L555 84L553 90L550 92L551 94L548 97L547 102L539 105L535 111L527 110L526 113H518L516 111L512 112L495 105V103L480 87L482 86L476 79L478 74L473 58L475 57L474 53L479 36L484 32L486 25L498 14L502 13L506 9L516 6ZM14 173H29L38 170L36 172L44 170L50 172H59L60 170L64 172L71 170H87L89 173L87 176L88 186L86 191L89 193L86 199L89 205L88 208H86L88 213L86 212L87 220L85 224L88 228L85 231V229L84 254L86 261L80 263L70 262L52 265L30 264L26 266H17L14 264V251L12 248L8 249L9 246L13 245L14 226L11 225V220L13 221L14 212L12 210L14 209V200L10 199L14 194V173ZM1006 185L1004 188L1008 191V196L1005 195V199L1007 200L1005 204V217L1007 220V225L1005 224V228L1008 226V229L1005 236L1008 237L1009 240L1006 243V250L1009 249L1005 262L1007 271L1005 270L1004 272L1006 278V283L1004 284L1006 294L1004 296H980L974 298L967 297L963 299L957 297L949 298L947 295L949 294L947 286L950 279L947 275L949 274V262L947 260L948 257H950L948 251L950 239L948 236V230L950 227L948 226V222L950 223V217L948 215L950 203L948 201V196L950 192H953L954 189H957V191H962L963 188L967 189L965 191L971 189L974 190L978 187L981 189L989 186L991 188L993 185L995 187L996 185H1006ZM153 24L154 31L151 36L152 44L150 50L153 49L152 56L150 57L152 62L150 61L149 64L152 66L150 69L151 74L149 76L150 83L148 84V89L151 90L150 95L139 96L135 94L130 97H108L105 99L101 98L97 101L92 100L84 103H75L74 98H76L74 92L76 89H74L73 85L75 86L74 77L76 78V76L74 74L75 71L73 66L77 65L75 60L77 56L74 48L77 47V44L75 43V38L77 35L76 32L89 28L92 30L96 28L100 29L108 27L109 29L120 24L123 26H131L133 24H137V26L141 23L146 25L148 23L153 24ZM768 186L772 183L776 185L780 182L782 184L783 182H796V184L800 182L810 185L812 183L824 184L826 182L840 184L841 193L839 194L840 203L838 204L841 210L840 216L842 218L839 223V219L838 221L840 225L838 232L840 236L838 239L841 240L838 242L840 244L839 248L831 250L829 248L821 250L817 248L812 250L807 248L801 251L798 249L793 251L780 250L778 252L776 250H770L768 237L769 229L767 226L769 213L767 210L769 209L767 201L769 200L768 186ZM752 31L757 33V40L761 41L758 45L761 49L757 53L758 59L761 60L759 64V71L763 77L761 80L759 78L762 84V92L760 93L761 102L763 105L761 109L745 113L743 111V100L748 102V99L753 97L756 92L755 90L749 89L743 94H735V87L737 85L736 82L733 83L731 81L724 84L720 94H724L729 91L733 101L731 102L733 108L736 110V114L732 119L738 116L742 119L759 113L762 117H765L763 127H753L751 129L742 128L734 131L732 129L726 133L721 131L715 134L714 132L710 131L712 128L710 124L711 113L709 111L711 106L709 104L710 94L708 93L711 75L709 73L707 63L710 61V56L708 53L709 39L714 40L735 31L742 33L752 31ZM317 47L310 46L299 52L295 58L297 60L292 62L288 69L289 73L286 76V84L288 88L296 92L298 90L302 93L297 95L293 93L288 95L286 98L288 101L285 102V105L282 108V119L279 121L276 120L270 124L272 130L269 132L270 142L273 146L276 144L279 146L289 142L294 143L305 137L307 141L310 139L314 140L316 137L312 125L306 120V118L295 116L291 118L289 116L290 107L296 97L315 100L319 99L324 94H328L332 101L331 121L334 124L333 129L336 135L339 131L337 127L339 123L336 119L338 113L335 105L336 96L330 91L327 92L324 88L329 87L330 84H332L333 81L331 78L334 73L332 70L333 67L331 65L329 55L317 47ZM71 185H68L71 188L68 190L65 184L63 192L59 197H56L59 183H49L43 187L38 199V215L28 225V229L24 235L25 241L24 244H22L23 249L31 250L30 252L32 254L37 252V254L42 256H48L50 254L61 255L69 251L72 253L77 248L75 246H70L67 248L63 246L60 241L44 228L47 219L55 223H60L62 226L70 223L73 219L71 216L72 213H69L68 217L61 221L55 215L56 211L60 207L61 201L67 200L73 192V197L75 200L74 188L71 187V185ZM800 195L792 203L793 205L791 210L794 212L792 218L796 221H804L811 217L814 218L816 215L814 199L809 195H800ZM885 45L882 48H879L878 52L875 54L876 59L875 63L873 64H876L877 68L875 67V72L872 76L879 84L888 89L891 85L885 83L880 78L879 75L881 70L883 72L892 73V82L894 84L897 80L894 79V74L899 71L900 62L895 63L888 69L884 68L882 65L889 48L888 45H885ZM524 26L522 30H520L515 52L513 49L507 52L508 58L515 61L516 64H519L539 86L545 88L544 85L535 77V73L526 66L525 60H521L520 54L524 41L523 37L526 31L524 26ZM908 44L907 47L910 50L908 57L909 67L903 77L906 79L913 75H919L921 77V81H919L920 90L923 92L921 95V100L923 102L928 95V100L930 95L929 91L927 90L929 79H926V77L928 75L915 68L916 58L914 54H911V47L908 44ZM307 125L309 131L305 136H296L293 138L289 137L284 140L278 139L277 128L293 123L307 125ZM829 232L823 226L807 224L801 227H795L794 230L792 229L782 235L781 239L785 240L796 233H804L811 229L813 231L818 230L826 237L828 236L829 232ZM34 239L43 232L53 241L56 248L35 249L33 247L34 239ZM126 53L107 51L96 54L92 58V61L96 60L97 62H101L106 59L112 61L117 57H123L126 53ZM317 76L320 78L315 84L318 88L319 95L317 97H310L306 92L308 84L306 82L307 78L317 76ZM993 265L991 263L980 264L974 267L971 266L968 268H963L960 272L962 274H970L972 272L982 271L986 268L991 269L993 265ZM128 71H116L110 74L95 76L91 81L92 83H97L113 76L115 78L121 74L126 75L128 71ZM995 247L991 245L984 247L979 246L963 249L961 252L964 254L985 251L988 252L995 247ZM321 61V70L308 75L304 70L307 65L315 64L321 61ZM988 207L985 205H978L976 207H965L960 211L964 214L969 212L973 213L978 211L980 212L988 207ZM804 203L807 204L810 212L805 217L798 215V208L804 203ZM988 228L976 226L974 228L966 229L962 233L964 235L975 232L978 234L984 229L986 230L988 228ZM50 185H54L55 188L52 192L48 191L50 185ZM50 194L51 196L44 200L46 194H50ZM158 67H161L160 74L157 72L158 67ZM475 32V34L471 37V33L475 32ZM707 73L710 74L708 77L706 75L707 73ZM332 70L333 72L330 74L332 70Z" fill="#1a1a1a"/>
  <path fill-rule="evenodd" clip-rule="evenodd" d="M295 99L290 111L292 117L300 115L306 117L308 121L313 124L318 137H326L332 133L333 124L330 121L331 104L329 99L325 96L315 101L303 98L295 99ZM80 244L78 242L79 234L75 221L73 220L64 227L53 222L46 223L44 227L47 231H50L63 245L68 247L70 245H75L77 247L80 244ZM788 240L795 241L805 238L817 239L825 237L818 231L813 232L811 230L799 235L797 233L788 240ZM35 239V248L56 246L48 236L43 233L35 239ZM755 95L753 98L749 99L748 103L744 100V109L747 111L750 110L755 95Z" fill="#006BFF"/>
</svg>
